<mxfile host="app.diagrams.net" modified="2023-01-23T16:55:59.103Z" agent="5.0 (Macintosh; Intel Mac OS X 10_15_7) AppleWebKit/537.36 (KHTML, like Gecko) Chrome/104.0.0.0 Safari/537.36" etag="LK4Cvb-gd-1DwiSR1TA2" version="20.8.10" type="github">
  <diagram name="Page-1" id="wZawNOBjCYCOrkfcdGZE">
    <mxGraphModel dx="2280" dy="1342" grid="1" gridSize="10" guides="1" tooltips="1" connect="1" arrows="1" fold="1" page="1" pageScale="1" pageWidth="827" pageHeight="1169" math="0" shadow="0">
      <root>
        <mxCell id="0" />
        <mxCell id="1" parent="0" />
        <mxCell id="S7u74fZ4QgXMWtRw8yqY-7" value="" style="edgeStyle=orthogonalEdgeStyle;rounded=0;orthogonalLoop=1;jettySize=auto;html=1;" edge="1" parent="1" source="S7u74fZ4QgXMWtRw8yqY-2" target="S7u74fZ4QgXMWtRw8yqY-8">
          <mxGeometry relative="1" as="geometry">
            <mxPoint x="260" y="160" as="targetPoint" />
          </mxGeometry>
        </mxCell>
        <mxCell id="S7u74fZ4QgXMWtRw8yqY-2" value="Login" style="html=1;strokeColor=none;fillColor=#0079D6;labelPosition=center;verticalLabelPosition=middle;verticalAlign=top;align=center;fontSize=12;outlineConnect=0;spacingTop=-6;fontColor=#FFFFFF;sketch=0;shape=mxgraph.sitemap.login;" vertex="1" parent="1">
          <mxGeometry x="30" y="250" width="120" height="70" as="geometry" />
        </mxCell>
        <mxCell id="S7u74fZ4QgXMWtRw8yqY-8" value="" style="whiteSpace=wrap;html=1;aspect=fixed;" vertex="1" parent="1">
          <mxGeometry x="280" y="100" width="360" height="360" as="geometry" />
        </mxCell>
        <mxCell id="S7u74fZ4QgXMWtRw8yqY-15" style="edgeStyle=orthogonalEdgeStyle;rounded=0;orthogonalLoop=1;jettySize=auto;html=1;exitX=1;exitY=0.25;exitDx=0;exitDy=0;entryX=0;entryY=0.5;entryDx=0;entryDy=0;" edge="1" parent="1" source="S7u74fZ4QgXMWtRw8yqY-10" target="S7u74fZ4QgXMWtRw8yqY-16">
          <mxGeometry relative="1" as="geometry">
            <mxPoint x="780" y="300" as="targetPoint" />
          </mxGeometry>
        </mxCell>
        <mxCell id="S7u74fZ4QgXMWtRw8yqY-10" value="Expense Planner" style="rounded=0;whiteSpace=wrap;html=1;" vertex="1" parent="1">
          <mxGeometry x="280" y="100" width="340" height="60" as="geometry" />
        </mxCell>
        <mxCell id="S7u74fZ4QgXMWtRw8yqY-11" value="Utilities" style="rounded=0;whiteSpace=wrap;html=1;" vertex="1" parent="1">
          <mxGeometry x="280" y="160" width="340" height="60" as="geometry" />
        </mxCell>
        <mxCell id="S7u74fZ4QgXMWtRw8yqY-12" value="Groceries" style="rounded=0;whiteSpace=wrap;html=1;" vertex="1" parent="1">
          <mxGeometry x="280" y="220" width="340" height="60" as="geometry" />
        </mxCell>
        <mxCell id="S7u74fZ4QgXMWtRw8yqY-13" value="Savings" style="rounded=0;whiteSpace=wrap;html=1;" vertex="1" parent="1">
          <mxGeometry x="280" y="280" width="340" height="60" as="geometry" />
        </mxCell>
        <mxCell id="S7u74fZ4QgXMWtRw8yqY-14" value="Meal Planner" style="rounded=0;whiteSpace=wrap;html=1;" vertex="1" parent="1">
          <mxGeometry x="280" y="340" width="340" height="60" as="geometry" />
        </mxCell>
        <mxCell id="S7u74fZ4QgXMWtRw8yqY-16" value="" style="rounded=0;whiteSpace=wrap;html=1;" vertex="1" parent="1">
          <mxGeometry x="890" y="40" width="120" height="140" as="geometry" />
        </mxCell>
        <mxCell id="S7u74fZ4QgXMWtRw8yqY-18" style="edgeStyle=orthogonalEdgeStyle;rounded=0;orthogonalLoop=1;jettySize=auto;html=1;exitX=0.5;exitY=1;exitDx=0;exitDy=0;" edge="1" parent="1" source="S7u74fZ4QgXMWtRw8yqY-17" target="S7u74fZ4QgXMWtRw8yqY-19">
          <mxGeometry relative="1" as="geometry">
            <mxPoint x="950" y="220" as="targetPoint" />
          </mxGeometry>
        </mxCell>
        <mxCell id="S7u74fZ4QgXMWtRw8yqY-17" value="Input against calendar" style="text;html=1;strokeColor=none;fillColor=none;align=center;verticalAlign=middle;whiteSpace=wrap;rounded=0;" vertex="1" parent="1">
          <mxGeometry x="930" y="80" width="60" height="30" as="geometry" />
        </mxCell>
        <mxCell id="S7u74fZ4QgXMWtRw8yqY-19" value="Dashboard" style="rounded=0;whiteSpace=wrap;html=1;" vertex="1" parent="1">
          <mxGeometry x="890" y="260" width="120" height="60" as="geometry" />
        </mxCell>
      </root>
    </mxGraphModel>
  </diagram>
</mxfile>
